<mxfile host="app.diagrams.net" agent="Mozilla/5.0 (Windows NT 10.0; Win64; x64) AppleWebKit/537.36 (KHTML, like Gecko) Chrome/129.0.0.0 Safari/537.36" version="24.7.16">
  <diagram name="Page-1" id="1KFoGyfs3hIH93ajdtfx">
    <mxGraphModel dx="1520" dy="865" grid="1" gridSize="10" guides="1" tooltips="1" connect="1" arrows="1" fold="1" page="1" pageScale="1" pageWidth="850" pageHeight="1100" math="0" shadow="0">
      <root>
        <mxCell id="0" />
        <mxCell id="1" parent="0" />
        <mxCell id="YmxFwdH_XGJluREPj5gg-12" value="Decision&lt;br&gt;Context" style="edgeStyle=orthogonalEdgeStyle;rounded=0;orthogonalLoop=1;jettySize=auto;html=1;entryX=0.5;entryY=0;entryDx=0;entryDy=0;labelPosition=left;verticalLabelPosition=middle;align=right;verticalAlign=middle;" parent="1" source="YmxFwdH_XGJluREPj5gg-1" target="YmxFwdH_XGJluREPj5gg-9" edge="1">
          <mxGeometry relative="1" as="geometry" />
        </mxCell>
        <mxCell id="YmxFwdH_XGJluREPj5gg-1" value="Architect with a&lt;div&gt;Decision Problem&lt;/div&gt;" style="shape=umlActor;verticalLabelPosition=top;verticalAlign=bottom;html=1;outlineConnect=0;labelPosition=center;align=center;" parent="1" vertex="1">
          <mxGeometry x="390" y="140" width="30" height="60" as="geometry" />
        </mxCell>
        <mxCell id="YmxFwdH_XGJluREPj5gg-2" value="Approach" style="swimlane;whiteSpace=wrap;html=1;fillColor=none;swimlaneLine=0;" parent="1" vertex="1">
          <mxGeometry x="320" y="290" width="330" height="320" as="geometry" />
        </mxCell>
        <mxCell id="YmxFwdH_XGJluREPj5gg-24" value="Similar&lt;div&gt;Design&lt;/div&gt;&lt;div&gt;Decisions&lt;/div&gt;" style="edgeStyle=orthogonalEdgeStyle;rounded=0;orthogonalLoop=1;jettySize=auto;html=1;" parent="YmxFwdH_XGJluREPj5gg-2" source="YmxFwdH_XGJluREPj5gg-6" target="YmxFwdH_XGJluREPj5gg-9" edge="1">
          <mxGeometry relative="1" as="geometry">
            <Array as="points">
              <mxPoint x="180" y="100" />
              <mxPoint x="180" y="100" />
            </Array>
          </mxGeometry>
        </mxCell>
        <mxCell id="YmxFwdH_XGJluREPj5gg-6" value="Previous&lt;div&gt;Design Decisions&lt;/div&gt;" style="strokeWidth=2;html=1;shape=mxgraph.flowchart.database;whiteSpace=wrap;labelPosition=center;verticalLabelPosition=middle;align=center;verticalAlign=middle;" parent="YmxFwdH_XGJluREPj5gg-2" vertex="1">
          <mxGeometry x="230" y="50" width="80" height="60" as="geometry" />
        </mxCell>
        <mxCell id="YmxFwdH_XGJluREPj5gg-10" value="&lt;div&gt;Finetuned&lt;/div&gt;Generative&lt;div&gt;LLM&lt;/div&gt;" style="shape=hexagon;perimeter=hexagonPerimeter2;whiteSpace=wrap;html=1;fixedSize=1;" parent="YmxFwdH_XGJluREPj5gg-2" vertex="1">
          <mxGeometry x="40" y="225" width="90" height="50" as="geometry" />
        </mxCell>
        <mxCell id="YmxFwdH_XGJluREPj5gg-21" value="Decision Context&lt;div&gt;along with similar&lt;/div&gt;&lt;div&gt;Design Decisions&amp;nbsp;&lt;/div&gt;" style="edgeStyle=orthogonalEdgeStyle;rounded=0;orthogonalLoop=1;jettySize=auto;html=1;" parent="YmxFwdH_XGJluREPj5gg-2" source="YmxFwdH_XGJluREPj5gg-9" target="YmxFwdH_XGJluREPj5gg-10" edge="1">
          <mxGeometry relative="1" as="geometry" />
        </mxCell>
        <mxCell id="YmxFwdH_XGJluREPj5gg-23" value="Query" style="edgeStyle=orthogonalEdgeStyle;rounded=0;orthogonalLoop=1;jettySize=auto;html=1;" parent="YmxFwdH_XGJluREPj5gg-2" source="YmxFwdH_XGJluREPj5gg-9" target="YmxFwdH_XGJluREPj5gg-6" edge="1">
          <mxGeometry relative="1" as="geometry">
            <Array as="points">
              <mxPoint x="180" y="60" />
              <mxPoint x="180" y="60" />
            </Array>
          </mxGeometry>
        </mxCell>
        <mxCell id="YmxFwdH_XGJluREPj5gg-9" value="Prompt&lt;div&gt;Processor&lt;/div&gt;" style="shape=hexagon;perimeter=hexagonPerimeter2;whiteSpace=wrap;html=1;fixedSize=1;" parent="YmxFwdH_XGJluREPj5gg-2" vertex="1">
          <mxGeometry x="40" y="60" width="90" height="40" as="geometry" />
        </mxCell>
        <mxCell id="lR5GZZaktJFzvCH0SG4i-2" value="Invalid&lt;div&gt;(Goes back&lt;/div&gt;&lt;div&gt;to Approach)&lt;/div&gt;" style="edgeStyle=orthogonalEdgeStyle;rounded=0;orthogonalLoop=1;jettySize=auto;html=1;entryX=0.5;entryY=0;entryDx=0;entryDy=0;" edge="1" parent="1" source="lR5GZZaktJFzvCH0SG4i-1" target="YmxFwdH_XGJluREPj5gg-9">
          <mxGeometry x="-0.5692" relative="1" as="geometry">
            <Array as="points">
              <mxPoint x="590" y="240" />
              <mxPoint x="405" y="240" />
            </Array>
            <mxPoint as="offset" />
          </mxGeometry>
        </mxCell>
        <mxCell id="lR5GZZaktJFzvCH0SG4i-3" value="Design&lt;div&gt;Desision&lt;/div&gt;" style="edgeStyle=orthogonalEdgeStyle;rounded=0;orthogonalLoop=1;jettySize=auto;html=1;" edge="1" parent="1" source="lR5GZZaktJFzvCH0SG4i-1">
          <mxGeometry relative="1" as="geometry">
            <mxPoint x="430" y="185" as="targetPoint" />
          </mxGeometry>
        </mxCell>
        <mxCell id="lR5GZZaktJFzvCH0SG4i-1" value="Validator" style="rhombus;whiteSpace=wrap;html=1;" vertex="1" parent="1">
          <mxGeometry x="550" y="160" width="80" height="50" as="geometry" />
        </mxCell>
        <mxCell id="YmxFwdH_XGJluREPj5gg-22" value="Generated&lt;div&gt;Design&lt;/div&gt;&lt;div&gt;Decision&lt;/div&gt;" style="edgeStyle=orthogonalEdgeStyle;rounded=0;orthogonalLoop=1;jettySize=auto;html=1;entryX=1;entryY=0.5;entryDx=0;entryDy=0;" parent="1" source="YmxFwdH_XGJluREPj5gg-10" target="lR5GZZaktJFzvCH0SG4i-1" edge="1">
          <mxGeometry x="-0.6031" relative="1" as="geometry">
            <mxPoint x="550" y="540" as="targetPoint" />
            <Array as="points">
              <mxPoint x="670" y="540" />
              <mxPoint x="670" y="185" />
            </Array>
            <mxPoint as="offset" />
          </mxGeometry>
        </mxCell>
      </root>
    </mxGraphModel>
  </diagram>
</mxfile>
